<svg version="1.1" id="Layer_1" xmlns="http://www.w3.org/2000/svg" xmlns:xlink="http://www.w3.org/1999/xlink" x="0px" y="0px"
	 width="100%" viewBox="0 0 600 600" enable-background="new 0 0 600 600" xml:space="preserve">
<path fill="#000000" opacity="1.000000" stroke="none" 
	d="
M351.000000,601.000000 
	C234.000000,601.000000 117.500000,601.000000 1.000000,601.000000 
	C1.000000,401.000000 1.000000,201.000000 1.000000,1.000000 
	C201.000000,1.000000 401.000000,1.000000 601.000000,1.000000 
	C601.000000,201.000000 601.000000,401.000000 601.000000,601.000000 
	C517.833313,601.000000 434.666656,601.000000 351.000000,601.000000 
M45.999863,398.500000 
	C45.999863,450.927979 45.999863,503.355927 45.999863,555.712524 
	C216.310883,555.712524 386.046539,555.712524 555.712524,555.712524 
	C555.712524,385.689148 555.712524,215.953491 555.712524,46.287453 
	C385.689178,46.287453 215.953506,46.287453 45.999863,46.287453 
	C45.999863,163.549942 45.999863,280.524963 45.999863,398.500000 
z"/>
<path fill="#FFFFFF" opacity="1.000000" stroke="none" 
	d="
M45.999863,398.000000 
	C45.999863,280.524963 45.999863,163.549942 45.999863,46.287453 
	C215.953506,46.287453 385.689178,46.287453 555.712524,46.287453 
	C555.712524,215.953491 555.712524,385.689148 555.712524,555.712524 
	C386.046539,555.712524 216.310883,555.712524 45.999863,555.712524 
	C45.999863,503.355927 45.999863,450.927979 45.999863,398.000000 
M473.269348,217.745255 
	C486.213593,198.629242 488.572998,177.986496 479.861816,156.906265 
	C462.431305,114.726021 407.584595,104.216728 375.301514,136.411621 
	C360.198456,151.473419 345.154297,166.594254 330.074097,181.678925 
	C270.101379,241.669373 210.088562,301.619904 150.248840,361.742706 
	C146.985168,365.021820 144.081940,369.422424 142.831238,373.818848 
	C134.550797,402.925964 126.690498,432.153900 118.855324,461.385895 
	C114.747505,476.711639 125.386429,487.254913 140.734055,483.129425 
	C168.996246,475.532379 197.196976,467.705841 225.477966,460.180176 
	C231.646408,458.538757 236.683762,455.614868 241.191284,451.101624 
	C314.206329,377.994507 387.309570,304.975403 460.353790,231.897369 
	C464.698761,227.550385 468.713959,222.873764 473.269348,217.745255 
z"/>
<path fill="#040404" opacity="1.000000" stroke="none" 
	d="
M473.075958,218.047882 
	C468.713959,222.873764 464.698761,227.550385 460.353790,231.897369 
	C387.309570,304.975403 314.206329,377.994507 241.191284,451.101624 
	C236.683762,455.614868 231.646408,458.538757 225.477966,460.180176 
	C197.196976,467.705841 168.996246,475.532379 140.734055,483.129425 
	C125.386429,487.254913 114.747505,476.711639 118.855324,461.385895 
	C126.690498,432.153900 134.550797,402.925964 142.831238,373.818848 
	C144.081940,369.422424 146.985168,365.021820 150.248840,361.742706 
	C210.088562,301.619904 270.101379,241.669373 330.074097,181.678925 
	C345.154297,166.594254 360.198456,151.473419 375.301514,136.411621 
	C407.584595,104.216728 462.431305,114.726021 479.861816,156.906265 
	C488.572998,177.986496 486.213593,198.629242 473.075958,218.047882 
M239.851746,405.351868 
	C291.268738,353.934998 342.685699,302.518158 393.708740,251.495224 
	C379.057556,236.848953 364.837555,222.633728 349.999664,207.800797 
	C349.059174,208.996216 348.066620,210.558243 346.790161,211.836807 
	C296.659698,262.049774 246.501587,312.235168 196.352539,362.429565 
	C189.172562,369.616028 180.305756,375.826569 175.338043,384.313995 
	C170.387268,392.772491 169.360641,403.527649 166.609802,413.274780 
	C166.519608,413.594452 166.367783,413.897003 166.281357,414.217407 
	C163.705917,423.764008 161.135086,433.311798 158.332275,443.718140 
	C169.143036,440.750092 179.030609,438.044434 188.912964,435.319794 
	C198.525116,432.669708 209.150253,431.734528 217.457672,426.856598 
	C225.941742,421.874969 232.148178,413.014343 239.851746,405.351868 
M428.851105,216.351303 
	C433.441528,211.760727 438.042786,207.180923 442.620209,202.577408 
	C453.783813,191.350281 454.466888,173.647507 444.201691,161.924576 
	C433.218414,149.381592 414.701324,146.522736 402.647034,156.978333 
	C392.913605,165.420914 384.737305,175.658768 376.303284,184.639069 
	C389.762726,198.036087 404.068451,212.275452 418.756195,226.895081 
	C421.697327,223.816406 425.024231,220.333893 428.851105,216.351303 
z"/>
<path fill="#FDFDFD" opacity="1.000000" stroke="none" 
	d="
M239.601746,405.601868 
	C232.148178,413.014343 225.941742,421.874969 217.457672,426.856598 
	C209.150253,431.734528 198.525116,432.669708 188.912964,435.319794 
	C179.030609,438.044434 169.143036,440.750092 158.332275,443.718140 
	C161.135086,433.311798 163.705917,423.764008 166.281357,414.217407 
	C166.367783,413.897003 166.519608,413.594452 166.609802,413.274780 
	C169.360641,403.527649 170.387268,392.772491 175.338043,384.313995 
	C180.305756,375.826569 189.172562,369.616028 196.352539,362.429565 
	C246.501587,312.235168 296.659698,262.049774 346.790161,211.836807 
	C348.066620,210.558243 349.059174,208.996216 349.999664,207.800797 
	C364.837555,222.633728 379.057556,236.848953 393.708740,251.495224 
	C342.685699,302.518158 291.268738,353.934998 239.601746,405.601868 
z"/>
<path fill="#FDFDFD" opacity="1.000000" stroke="none" 
	d="
M428.601135,216.601349 
	C425.024231,220.333893 421.697327,223.816406 418.756195,226.895081 
	C404.068451,212.275452 389.762726,198.036087 376.303284,184.639069 
	C384.737305,175.658768 392.913605,165.420914 402.647034,156.978333 
	C414.701324,146.522736 433.218414,149.381592 444.201691,161.924576 
	C454.466888,173.647507 453.783813,191.350281 442.620209,202.577408 
	C438.042786,207.180923 433.441528,211.760727 428.601135,216.601349 
z"/>
</svg>