<svg version="1.1" id="Layer_1" xmlns="http://www.w3.org/2000/svg" xmlns:xlink="http://www.w3.org/1999/xlink" x="0px" y="0px"
	 width="100%" viewBox="0 0 592 592" enable-background="new 0 0 592 592" xml:space="preserve">
<path fill="#000000" opacity="1.000000" stroke="none" 
	d="
M287.000000,1.000000 
	C388.933380,1.000000 490.866730,1.000000 593.000000,1.000000 
	C593.000000,120.355270 593.000000,239.710663 592.650146,359.439941 
	C589.499329,359.602020 586.629456,359.705658 583.911560,359.112762 
	C578.233643,357.874176 573.654724,359.505005 569.076721,362.932434 
	C562.767273,367.656189 556.721741,373.132812 548.067749,373.459137 
	C546.387451,373.522491 544.411072,374.508789 543.160217,375.691986 
	C537.124878,381.401031 530.216492,386.152679 524.796692,392.534668 
	C519.222046,399.098907 513.232056,405.283112 507.715820,411.930054 
	C502.970428,417.648132 496.033997,421.748199 489.586548,425.800262 
	C482.337036,430.356445 475.467590,435.330383 470.149078,441.959290 
	C460.878723,453.513824 451.352325,464.834839 441.091003,475.501892 
	C424.182373,493.079102 405.257233,508.910217 393.516998,530.905273 
	C389.283813,538.835999 382.178833,544.979797 379.195129,553.632568 
	C375.804199,563.466370 369.827576,571.087769 361.018677,576.596252 
	C355.973114,579.751404 352.005859,588.103882 353.000000,593.000000 
	C235.741608,593.000000 118.483208,593.000000 1.000000,593.000000 
	C1.000000,483.978088 1.000000,374.956024 1.240906,265.629028 
	C3.161577,266.843018 4.486767,265.550842 5.982064,264.860718 
	C9.464615,263.253448 13.002630,261.848969 16.990076,262.072754 
	C22.757130,262.396393 26.780464,259.666595 29.631605,254.769577 
	C33.701218,247.779770 40.384575,244.770126 47.972980,244.491974 
	C53.170147,244.301483 57.656345,242.763290 62.311699,240.877655 
	C69.326714,238.036285 72.484268,230.933456 78.459023,226.966721 
	C82.065132,224.572525 84.785736,221.234818 87.460823,217.748337 
	C92.708160,210.909454 97.782585,203.610672 104.312294,198.159805 
	C114.049820,190.031128 122.327393,180.481430 131.773575,172.085968 
	C139.851700,164.906387 147.840897,157.507431 156.602234,151.353790 
	C167.622818,143.613358 178.752625,135.992081 189.427475,127.803284 
	C196.640717,122.269936 204.471863,117.073273 209.830139,109.614136 
	C214.302277,103.388588 219.566650,97.763222 223.684830,91.339874 
	C233.221375,76.465179 243.784271,62.431320 255.680222,49.356457 
	C260.311981,44.265656 264.919739,39.500526 271.433716,36.657581 
	C276.281342,34.541904 280.799408,31.578829 285.248047,28.663258 
	C291.734314,24.412273 292.911896,20.168772 290.143799,13.338090 
	C289.662140,12.149478 289.690735,10.757524 289.456940,9.464317 
	C288.931580,6.558511 289.022308,3.471799 287.000000,1.000000 
M384.418640,306.918335 
	C410.858032,280.572906 437.220795,254.149948 463.763641,227.909134 
	C481.618958,210.256958 488.198944,189.272400 481.933350,164.997772 
	C469.876495,118.286140 410.785980,102.484451 376.129700,136.517776 
	C361.865997,150.525162 347.833557,164.768097 333.701691,178.909622 
	C272.450500,240.202652 211.205414,301.501770 149.940460,362.781036 
	C146.686188,366.036102 144.362854,369.728821 143.142868,374.213715 
	C135.326462,402.948730 127.337395,431.637115 119.610909,460.396118 
	C115.261597,476.584839 125.618126,486.736511 141.714142,482.357330 
	C169.648453,474.757385 197.571869,467.117065 225.522400,459.577240 
	C231.304123,458.017578 236.166382,455.245850 240.433640,450.968231 
	C288.214569,403.071014 336.077698,355.255798 384.418640,306.918335 
z"/>
<path fill="#000000" opacity="1.000000" stroke="none" 
	d="
M305.003479,341.003937 
	C277.303314,368.716217 249.823318,396.148743 222.439621,423.677124 
	C219.397034,426.735748 216.089630,428.677856 211.878845,429.773956 
	C195.776535,433.965576 179.758148,438.479370 163.702637,442.851624 
	C162.132797,443.279114 160.523178,443.560577 158.815659,443.935394 
	C157.784012,441.050476 159.059128,438.744812 159.675598,436.446960 
	C163.942505,420.542755 168.350845,404.676514 172.618698,388.772522 
	C173.466080,385.614807 174.952255,383.023956 177.274368,380.704285 
	C233.983017,324.054199 290.675842,267.388245 347.268280,210.622177 
	C350.303345,207.577789 352.085022,207.874634 354.885498,210.742828 
	C366.759888,222.904404 378.718994,234.988434 390.887665,246.854172 
	C394.204590,250.088531 394.049347,252.059052 390.843536,255.243164 
	C362.229919,283.662598 333.762421,312.229126 305.003479,341.003937 
z"/>
<path fill="#000000" opacity="1.000000" stroke="none" 
	d="
M406.757721,153.430801 
	C428.741821,145.077713 449.068115,156.320847 451.773285,178.276474 
	C452.851807,187.030304 450.541962,195.178314 444.224976,201.679550 
	C436.574341,209.553345 428.668030,217.178421 420.995178,225.031113 
	C418.638275,227.443222 416.957367,227.621582 414.457062,225.079178 
	C402.209290,212.625244 389.828766,200.300980 377.416290,188.010498 
	C374.854797,185.474152 374.137939,183.554703 377.207764,180.665665 
	C384.594727,173.713730 391.679749,166.440262 398.862488,159.272385 
	C401.117706,157.021851 403.595581,155.093536 406.757721,153.430801 
z"/>
</svg>